<?xml version="1.0" encoding="UTF-8" standalone="no"?>
<!DOCTYPE svg PUBLIC "-//W3C//DTD SVG 1.1//EN" "http://www.w3.org/Graphics/SVG/1.1/DTD/svg11.dtd">
<svg xmlns="http://www.w3.org/2000/svg" version="1.1" viewBox="0.00 0.00 348.00 96.00">
<g stroke-width="2.20" fill="none" stroke-linecap="butt">
<path stroke="#808080" vector-effect="non-scaling-stroke" d="
  M 345.25 3.57
  A 0.57 0.57 0.0 0 0 344.68 3.00
  L 2.82 3.00
  A 0.57 0.57 0.0 0 0 2.25 3.57
  L 2.25 92.43
  A 0.57 0.57 0.0 0 0 2.82 93.00
  L 344.68 93.00
  A 0.57 0.57 0.0 0 0 345.25 92.43
  L 345.25 3.57"
/>
<path stroke="#808080" vector-effect="non-scaling-stroke" d="
  M 242.50 9.57
  A 0.57 0.57 0.0 0 0 241.93 9.00
  L 9.57 9.00
  A 0.57 0.57 0.0 0 0 9.00 9.57
  L 9.00 86.43
  A 0.57 0.57 0.0 0 0 9.57 87.00
  L 241.93 87.00
  A 0.57 0.57 0.0 0 0 242.50 86.43
  L 242.50 9.57"
/>
<path stroke="#808080" vector-effect="non-scaling-stroke" d="
  M 316.34 50.77
  C 312.35 58.82 299.36 49.93 305.82 42.51
  Q 310.20 37.48 315.93 42.17
  A 1.66 1.64 -25.4 0 0 316.96 42.53
  L 323.47 42.49
  Q 323.92 42.49 323.80 42.06
  C 322.11 36.10 315.87 33.12 310.11 33.29
  C 293.43 33.78 292.25 57.76 307.98 60.29
  C 317.72 61.85 325.14 55.50 324.47 45.20
  Q 324.44 44.75 323.98 44.75
  L 310.00 44.75
  Q 309.50 44.75 309.50 45.25
  L 309.50 49.46
  Q 309.50 49.93 309.97 49.95
  L 315.95 50.12
  Q 316.65 50.14 316.34 50.77"
/>
<path stroke="#808080" vector-effect="non-scaling-stroke" d="
  M 291.10 46.24
  Q 294.95 42.63 292.94 37.96
  C 290.60 32.52 278.39 33.52 272.56 33.91
  Q 272.00 33.94 272.00 34.51
  L 272.00 59.27
  Q 272.00 59.89 272.62 59.92
  C 278.83 60.22 297.47 62.45 293.88 50.08
  C 293.48 48.69 292.16 47.84 291.11 46.93
  Q 290.72 46.60 291.10 46.24"
/>
<path stroke="#808080" vector-effect="non-scaling-stroke" d="
  M 82.60 46.89
  A 13.61 13.61 0.0 0 0 68.99 33.28
  A 13.61 13.61 0.0 0 0 55.38 46.89
  A 13.61 13.61 0.0 0 0 68.99 60.50
  A 13.61 13.61 0.0 0 0 82.60 46.89"
/>
<path stroke="#808080" vector-effect="non-scaling-stroke" d="
  M 166.10 46.90
  A 13.61 13.61 0.0 0 0 152.49 33.29
  A 13.61 13.61 0.0 0 0 138.88 46.90
  A 13.61 13.61 0.0 0 0 152.49 60.51
  A 13.61 13.61 0.0 0 0 166.10 46.90"
/>
<path stroke="#808080" vector-effect="non-scaling-stroke" d="
  M 28.74 40.13
  A 0.24 0.24 0.0 0 1 29.18 39.99
  Q 35.87 49.30 42.41 58.74
  C 43.33 60.07 44.23 60.44 45.76 59.97
  Q 46.28 59.81 46.28 59.27
  L 46.24 34.24
  Q 46.24 33.75 45.74 33.75
  L 43.75 33.75
  Q 43.25 33.75 43.25 34.25
  L 43.25 52.82
  Q 43.25 54.51 42.28 53.13
  L 28.88 34.12
  A 1.75 1.75 0.0 0 0 25.70 35.11
  L 25.50 59.50
  Q 25.49 60.00 26.00 60.00
  L 28.51 60.00
  A 0.27 0.27 0.0 0 0 28.78 59.73
  L 28.74 40.13"
/>
<path stroke="#808080" vector-effect="non-scaling-stroke" d="
  M 107.05 40.60
  Q 111.03 46.50 114.93 52.44
  Q 115.21 52.87 115.71 52.98
  C 117.34 53.36 118.14 52.91 119.04 51.47
  Q 122.51 45.97 126.11 40.79
  A 0.35 0.35 0.0 0 1 126.75 40.99
  L 126.75 59.37
  Q 126.75 60.00 127.38 60.00
  L 129.38 60.00
  Q 130.00 60.00 130.00 59.37
  L 130.00 34.49
  Q 130.00 34.01 129.54 33.85
  C 127.83 33.26 126.89 33.75 125.93 35.28
  Q 121.58 42.16 116.93 48.92
  Q 116.64 49.34 116.36 48.91
  L 106.61 34.12
  A 1.83 1.83 0.0 0 0 103.25 35.13
  L 103.25 59.38
  Q 103.25 60.00 103.88 60.00
  L 105.88 60.00
  Q 106.50 60.00 106.50 59.37
  L 106.50 40.77
  Q 106.50 39.78 107.05 40.60"
/>
<path stroke="#808080" vector-effect="non-scaling-stroke" d="
  M 178.65 50.48
  L 183.40 50.54
  A 0.87 0.85 72.4 0 1 184.11 50.92
  L 189.98 59.51
  Q 190.31 60.00 190.90 60.00
  L 193.41 60.00
  Q 194.23 60.00 193.77 59.32
  L 187.99 50.79
  Q 187.68 50.33 188.20 50.13
  Q 193.11 48.15 193.68 43.40
  C 194.98 32.59 182.85 33.29 175.29 33.92
  Q 174.75 33.97 174.75 34.51
  L 174.75 59.40
  Q 174.75 60.05 175.40 60.03
  L 177.79 59.94
  Q 178.04 59.93 178.04 59.67
  L 178.02 51.10
  Q 178.02 50.47 178.65 50.48"
/>
<path stroke="#808080" vector-effect="non-scaling-stroke" d="
  M 206.28 44.67
  L 206.24 37.33
  A 0.51 0.51 0.0 0 1 206.73 36.81
  Q 212.00 36.61 217.30 36.82
  C 219.32 36.90 219.27 35.96 218.96 34.28
  Q 218.86 33.75 218.32 33.75
  L 203.62 33.75
  Q 203.00 33.75 203.00 34.38
  L 203.00 59.50
  Q 203.00 60.00 203.50 60.00
  L 218.92 60.00
  A 0.56 0.55 87.6 0 0 219.47 59.39
  L 219.29 57.62
  Q 219.23 57.00 218.62 57.00
  L 207.00 57.00
  Q 206.44 56.99 206.44 56.44
  L 206.39 48.81
  Q 206.39 48.25 206.94 48.25
  L 217.50 48.25
  Q 218.00 48.25 218.00 47.75
  L 218.00 45.87
  Q 218.00 45.25 217.37 45.25
  L 206.86 45.25
  Q 206.28 45.25 206.28 44.67"
/>
<path stroke="#808080" vector-effect="non-scaling-stroke" d="
  M 79.21 46.90
  A 10.24 10.24 0.0 0 0 68.97 36.66
  A 10.24 10.24 0.0 0 0 58.73 46.90
  A 10.24 10.24 0.0 0 0 68.97 57.14
  A 10.24 10.24 0.0 0 0 79.21 46.90"
/>
<path stroke="#808080" vector-effect="non-scaling-stroke" d="
  M 162.72 46.89
  A 10.24 10.24 0.0 0 0 152.48 36.65
  A 10.24 10.24 0.0 0 0 142.24 46.89
  A 10.24 10.24 0.0 0 0 152.48 57.13
  A 10.24 10.24 0.0 0 0 162.72 46.89"
/>
<path stroke="#808080" vector-effect="non-scaling-stroke" d="
  M 178.17 37.29
  L 178.29 47.21
  A 0.24 0.24 0.0 0 0 178.53 47.45
  L 184.75 47.37
  A 5.60 4.86 -0.7 0 0 190.29 42.45
  L 190.29 41.77
  A 5.60 4.86 -0.7 0 0 184.63 36.98
  L 178.41 37.05
  A 0.24 0.24 0.0 0 0 178.17 37.29"
/>
<path stroke="#808080" vector-effect="non-scaling-stroke" d="
  M 279.51 39.77
  L 279.49 43.65
  A 0.34 0.34 0.0 0 0 279.83 43.99
  L 283.45 44.01
  A 2.54 2.14 0.3 0 0 286.00 41.89
  L 286.00 41.61
  A 2.54 2.14 0.3 0 0 283.47 39.45
  L 279.85 39.43
  A 0.34 0.34 0.0 0 0 279.51 39.77"
/>
<path stroke="#808080" vector-effect="non-scaling-stroke" d="
  M 279.50 49.80
  L 279.50 54.02
  A 0.26 0.26 0.0 0 0 279.76 54.28
  L 284.22 54.27
  A 2.50 2.21 -0.1 0 0 286.72 52.05
  L 286.72 51.73
  A 2.50 2.21 -0.1 0 0 284.22 49.53
  L 279.76 49.54
  A 0.26 0.26 0.0 0 0 279.50 49.80"
/>
</g>
<path fill="#000000" d="
  M 0.00 0.00
  L 348.00 0.00
  L 348.00 96.00
  L 0.00 96.00
  L 0.00 0.00
  Z
  M 345.25 3.57
  A 0.57 0.57 0.0 0 0 344.68 3.00
  L 2.82 3.00
  A 0.57 0.57 0.0 0 0 2.25 3.57
  L 2.25 92.43
  A 0.57 0.57 0.0 0 0 2.82 93.00
  L 344.68 93.00
  A 0.57 0.57 0.0 0 0 345.25 92.43
  L 345.25 3.57
  Z"
/>
<path fill="#ffffff" d="
  M 345.25 92.43
  A 0.57 0.57 0.0 0 1 344.68 93.00
  L 2.82 93.00
  A 0.57 0.57 0.0 0 1 2.25 92.43
  L 2.25 3.57
  A 0.57 0.57 0.0 0 1 2.82 3.00
  L 344.68 3.00
  A 0.57 0.57 0.0 0 1 345.25 3.57
  L 345.25 92.43
  Z
  M 242.50 9.57
  A 0.57 0.57 0.0 0 0 241.93 9.00
  L 9.57 9.00
  A 0.57 0.57 0.0 0 0 9.00 9.57
  L 9.00 86.43
  A 0.57 0.57 0.0 0 0 9.57 87.00
  L 241.93 87.00
  A 0.57 0.57 0.0 0 0 242.50 86.43
  L 242.50 9.57
  Z
  M 316.34 50.77
  C 312.35 58.82 299.36 49.93 305.82 42.51
  Q 310.20 37.48 315.93 42.17
  A 1.66 1.64 -25.4 0 0 316.96 42.53
  L 323.47 42.49
  Q 323.92 42.49 323.80 42.06
  C 322.11 36.10 315.87 33.12 310.11 33.29
  C 293.43 33.78 292.25 57.76 307.98 60.29
  C 317.72 61.85 325.14 55.50 324.47 45.20
  Q 324.44 44.75 323.98 44.75
  L 310.00 44.75
  Q 309.50 44.75 309.50 45.25
  L 309.50 49.46
  Q 309.50 49.93 309.97 49.95
  L 315.95 50.12
  Q 316.65 50.14 316.34 50.77
  Z
  M 291.10 46.24
  Q 294.95 42.63 292.94 37.96
  C 290.60 32.52 278.39 33.52 272.56 33.91
  Q 272.00 33.94 272.00 34.51
  L 272.00 59.27
  Q 272.00 59.89 272.62 59.92
  C 278.83 60.22 297.47 62.45 293.88 50.08
  C 293.48 48.69 292.16 47.84 291.11 46.93
  Q 290.72 46.60 291.10 46.24
  Z"
/>
<path fill="#000000" d="
  M 242.50 86.43
  A 0.57 0.57 0.0 0 1 241.93 87.00
  L 9.57 87.00
  A 0.57 0.57 0.0 0 1 9.00 86.43
  L 9.00 9.57
  A 0.57 0.57 0.0 0 1 9.57 9.00
  L 241.93 9.00
  A 0.57 0.57 0.0 0 1 242.50 9.57
  L 242.50 86.43
  Z
  M 82.60 46.89
  A 13.61 13.61 0.0 0 0 68.99 33.28
  A 13.61 13.61 0.0 0 0 55.38 46.89
  A 13.61 13.61 0.0 0 0 68.99 60.50
  A 13.61 13.61 0.0 0 0 82.60 46.89
  Z
  M 166.10 46.90
  A 13.61 13.61 0.0 0 0 152.49 33.29
  A 13.61 13.61 0.0 0 0 138.88 46.90
  A 13.61 13.61 0.0 0 0 152.49 60.51
  A 13.61 13.61 0.0 0 0 166.10 46.90
  Z
  M 28.74 40.13
  A 0.24 0.24 0.0 0 1 29.18 39.99
  Q 35.87 49.30 42.41 58.74
  C 43.33 60.07 44.23 60.44 45.76 59.97
  Q 46.28 59.81 46.28 59.27
  L 46.24 34.24
  Q 46.24 33.75 45.74 33.75
  L 43.75 33.75
  Q 43.25 33.75 43.25 34.25
  L 43.25 52.82
  Q 43.25 54.51 42.28 53.13
  L 28.88 34.12
  A 1.75 1.75 0.0 0 0 25.70 35.11
  L 25.50 59.50
  Q 25.49 60.00 26.00 60.00
  L 28.51 60.00
  A 0.27 0.27 0.0 0 0 28.78 59.73
  L 28.74 40.13
  Z
  M 107.05 40.60
  Q 111.03 46.50 114.93 52.44
  Q 115.21 52.87 115.71 52.98
  C 117.34 53.36 118.14 52.91 119.04 51.47
  Q 122.51 45.97 126.11 40.79
  A 0.35 0.35 0.0 0 1 126.75 40.99
  L 126.75 59.37
  Q 126.75 60.00 127.38 60.00
  L 129.38 60.00
  Q 130.00 60.00 130.00 59.37
  L 130.00 34.49
  Q 130.00 34.01 129.54 33.85
  C 127.83 33.26 126.89 33.75 125.93 35.28
  Q 121.58 42.16 116.93 48.92
  Q 116.64 49.34 116.36 48.91
  L 106.61 34.12
  A 1.83 1.83 0.0 0 0 103.25 35.13
  L 103.25 59.38
  Q 103.25 60.00 103.88 60.00
  L 105.88 60.00
  Q 106.50 60.00 106.50 59.37
  L 106.50 40.77
  Q 106.50 39.78 107.05 40.60
  Z
  M 178.65 50.48
  L 183.40 50.54
  A 0.87 0.85 72.4 0 1 184.11 50.92
  L 189.98 59.51
  Q 190.31 60.00 190.90 60.00
  L 193.41 60.00
  Q 194.23 60.00 193.77 59.32
  L 187.99 50.79
  Q 187.68 50.33 188.20 50.13
  Q 193.11 48.15 193.68 43.40
  C 194.98 32.59 182.85 33.29 175.29 33.92
  Q 174.75 33.97 174.75 34.51
  L 174.75 59.40
  Q 174.75 60.05 175.40 60.03
  L 177.79 59.94
  Q 178.04 59.93 178.04 59.67
  L 178.02 51.10
  Q 178.02 50.47 178.65 50.48
  Z
  M 206.28 44.67
  L 206.24 37.33
  A 0.51 0.51 0.0 0 1 206.73 36.81
  Q 212.00 36.61 217.30 36.82
  C 219.32 36.90 219.27 35.96 218.96 34.28
  Q 218.86 33.75 218.32 33.75
  L 203.62 33.75
  Q 203.00 33.75 203.00 34.38
  L 203.00 59.50
  Q 203.00 60.00 203.50 60.00
  L 218.92 60.00
  A 0.56 0.55 87.6 0 0 219.47 59.39
  L 219.29 57.62
  Q 219.23 57.00 218.62 57.00
  L 207.00 57.00
  Q 206.44 56.99 206.44 56.44
  L 206.39 48.81
  Q 206.39 48.25 206.94 48.25
  L 217.50 48.25
  Q 218.00 48.25 218.00 47.75
  L 218.00 45.87
  Q 218.00 45.25 217.37 45.25
  L 206.86 45.25
  Q 206.28 45.25 206.28 44.67
  Z"
/>
<path fill="#000000" d="
  M 315.95 50.12
  L 309.97 49.95
  Q 309.50 49.93 309.50 49.46
  L 309.50 45.25
  Q 309.50 44.75 310.00 44.75
  L 323.98 44.75
  Q 324.44 44.75 324.47 45.20
  C 325.14 55.50 317.72 61.85 307.98 60.29
  C 292.25 57.76 293.43 33.78 310.11 33.29
  C 315.87 33.12 322.11 36.10 323.80 42.06
  Q 323.92 42.49 323.47 42.49
  L 316.96 42.53
  A 1.66 1.64 -25.4 0 1 315.93 42.17
  Q 310.20 37.48 305.82 42.51
  C 299.36 49.93 312.35 58.82 316.34 50.77
  Q 316.65 50.14 315.95 50.12
  Z"
/>
<path fill="#ffffff" d="
  M 82.60 46.89
  A 13.61 13.61 0.0 0 1 68.99 60.50
  A 13.61 13.61 0.0 0 1 55.38 46.89
  A 13.61 13.61 0.0 0 1 68.99 33.28
  A 13.61 13.61 0.0 0 1 82.60 46.89
  Z
  M 79.21 46.90
  A 10.24 10.24 0.0 0 0 68.97 36.66
  A 10.24 10.24 0.0 0 0 58.73 46.90
  A 10.24 10.24 0.0 0 0 68.97 57.14
  A 10.24 10.24 0.0 0 0 79.21 46.90
  Z"
/>
<path fill="#ffffff" d="
  M 166.10 46.90
  A 13.61 13.61 0.0 0 1 152.49 60.51
  A 13.61 13.61 0.0 0 1 138.88 46.90
  A 13.61 13.61 0.0 0 1 152.49 33.29
  A 13.61 13.61 0.0 0 1 166.10 46.90
  Z
  M 162.72 46.89
  A 10.24 10.24 0.0 0 0 152.48 36.65
  A 10.24 10.24 0.0 0 0 142.24 46.89
  A 10.24 10.24 0.0 0 0 152.48 57.13
  A 10.24 10.24 0.0 0 0 162.72 46.89
  Z"
/>
<path fill="#ffffff" d="
  M 28.74 40.13
  L 28.78 59.73
  A 0.27 0.27 0.0 0 1 28.51 60.00
  L 26.00 60.00
  Q 25.49 60.00 25.50 59.50
  L 25.70 35.11
  A 1.75 1.75 0.0 0 1 28.88 34.12
  L 42.28 53.13
  Q 43.25 54.51 43.25 52.82
  L 43.25 34.25
  Q 43.25 33.75 43.75 33.75
  L 45.74 33.75
  Q 46.24 33.75 46.24 34.24
  L 46.28 59.27
  Q 46.28 59.81 45.76 59.97
  C 44.23 60.44 43.33 60.07 42.41 58.74
  Q 35.87 49.30 29.18 39.99
  A 0.24 0.24 0.0 0 0 28.74 40.13
  Z"
/>
<path fill="#ffffff" d="
  M 106.50 40.77
  L 106.50 59.37
  Q 106.50 60.00 105.88 60.00
  L 103.88 60.00
  Q 103.25 60.00 103.25 59.38
  L 103.25 35.13
  A 1.83 1.83 0.0 0 1 106.61 34.12
  L 116.36 48.91
  Q 116.64 49.34 116.93 48.92
  Q 121.58 42.16 125.93 35.28
  C 126.89 33.75 127.83 33.26 129.54 33.85
  Q 130.00 34.01 130.00 34.49
  L 130.00 59.37
  Q 130.00 60.00 129.38 60.00
  L 127.38 60.00
  Q 126.75 60.00 126.75 59.37
  L 126.75 40.99
  A 0.35 0.35 0.0 0 0 126.11 40.79
  Q 122.51 45.97 119.04 51.47
  C 118.14 52.91 117.34 53.36 115.71 52.98
  Q 115.21 52.87 114.93 52.44
  Q 111.03 46.50 107.05 40.60
  Q 106.50 39.78 106.50 40.77
  Z"
/>
<path fill="#ffffff" d="
  M 178.02 51.10
  L 178.04 59.67
  Q 178.04 59.93 177.79 59.94
  L 175.40 60.03
  Q 174.75 60.05 174.75 59.40
  L 174.75 34.51
  Q 174.75 33.97 175.29 33.92
  C 182.85 33.29 194.98 32.59 193.68 43.40
  Q 193.11 48.15 188.20 50.13
  Q 187.68 50.33 187.99 50.79
  L 193.77 59.32
  Q 194.23 60.00 193.41 60.00
  L 190.90 60.00
  Q 190.31 60.00 189.98 59.51
  L 184.11 50.92
  A 0.87 0.85 72.4 0 0 183.40 50.54
  L 178.65 50.48
  Q 178.02 50.47 178.02 51.10
  Z
  M 178.17 37.29
  L 178.29 47.21
  A 0.24 0.24 0.0 0 0 178.53 47.45
  L 184.75 47.37
  A 5.60 4.86 -0.7 0 0 190.29 42.45
  L 190.29 41.77
  A 5.60 4.86 -0.7 0 0 184.63 36.98
  L 178.41 37.05
  A 0.24 0.24 0.0 0 0 178.17 37.29
  Z"
/>
<path fill="#ffffff" d="
  M 206.86 45.25
  L 217.37 45.25
  Q 218.00 45.25 218.00 45.87
  L 218.00 47.75
  Q 218.00 48.25 217.50 48.25
  L 206.94 48.25
  Q 206.39 48.25 206.39 48.81
  L 206.44 56.44
  Q 206.44 56.99 207.00 57.00
  L 218.62 57.00
  Q 219.23 57.00 219.29 57.62
  L 219.47 59.39
  A 0.56 0.55 87.6 0 1 218.92 60.00
  L 203.50 60.00
  Q 203.00 60.00 203.00 59.50
  L 203.00 34.38
  Q 203.00 33.75 203.62 33.75
  L 218.32 33.75
  Q 218.86 33.75 218.96 34.28
  C 219.27 35.96 219.32 36.90 217.30 36.82
  Q 212.00 36.61 206.73 36.81
  A 0.51 0.51 0.0 0 0 206.24 37.33
  L 206.28 44.67
  Q 206.28 45.25 206.86 45.25
  Z"
/>
<path fill="#000000" d="
  M 291.11 46.93
  C 292.16 47.84 293.48 48.69 293.88 50.08
  C 297.47 62.45 278.83 60.22 272.62 59.92
  Q 272.00 59.89 272.00 59.27
  L 272.00 34.51
  Q 272.00 33.94 272.56 33.91
  C 278.39 33.52 290.60 32.52 292.94 37.96
  Q 294.95 42.63 291.10 46.24
  Q 290.72 46.60 291.11 46.93
  Z
  M 279.51 39.77
  L 279.49 43.65
  A 0.34 0.34 0.0 0 0 279.83 43.99
  L 283.45 44.01
  A 2.54 2.14 0.3 0 0 286.00 41.89
  L 286.00 41.61
  A 2.54 2.14 0.3 0 0 283.47 39.45
  L 279.85 39.43
  A 0.34 0.34 0.0 0 0 279.51 39.77
  Z
  M 279.50 49.80
  L 279.50 54.02
  A 0.26 0.26 0.0 0 0 279.76 54.28
  L 284.22 54.27
  A 2.50 2.21 -0.1 0 0 286.72 52.05
  L 286.72 51.73
  A 2.50 2.21 -0.1 0 0 284.22 49.53
  L 279.76 49.54
  A 0.26 0.26 0.0 0 0 279.50 49.80
  Z"
/>
<circle fill="#000000" cx="68.97" cy="46.90" r="10.24"/>
<circle fill="#000000" cx="152.48" cy="46.89" r="10.24"/>
<path fill="#000000" d="
  M 178.17 37.29
  A 0.24 0.24 0.0 0 1 178.41 37.05
  L 184.63 36.98
  A 5.60 4.86 -0.7 0 1 190.29 41.77
  L 190.29 42.45
  A 5.60 4.86 -0.7 0 1 184.75 47.37
  L 178.53 47.45
  A 0.24 0.24 0.0 0 1 178.29 47.21
  L 178.17 37.29
  Z"
/>
<path fill="#ffffff" d="
  M 279.51 39.77
  A 0.34 0.34 0.0 0 1 279.85 39.43
  L 283.47 39.45
  A 2.54 2.14 0.3 0 1 286.00 41.61
  L 286.00 41.89
  A 2.54 2.14 0.3 0 1 283.45 44.01
  L 279.83 43.99
  A 0.34 0.34 0.0 0 1 279.49 43.65
  L 279.51 39.77
  Z"
/>
<path fill="#ffffff" d="
  M 279.50 49.80
  A 0.26 0.26 0.0 0 1 279.76 49.54
  L 284.22 49.53
  A 2.50 2.21 -0.1 0 1 286.72 51.73
  L 286.72 52.05
  A 2.50 2.21 -0.1 0 1 284.22 54.27
  L 279.76 54.28
  A 0.26 0.26 0.0 0 1 279.50 54.02
  L 279.50 49.80
  Z"
/>
</svg>
